
<svg width="184" height="54" viewBox="0 0 184 54" fill="none" xmlns="http://www.w3.org/2000/svg">
<g clip-path="url(#clip0_18_1079)">
<path d="M87.9487 24.2491H91.3677V29.6017C89.8596 31.2706 87.7684 32.1051 85.0941 32.1051C82.8579 32.1051 80.9814 31.3709 79.4647 29.9026C77.948 28.4343 77.1889 26.5846 77.1875 24.3536C77.1875 22.117 77.9609 20.2502 79.5078 18.7534C80.2412 18.0255 81.1152 17.4514 82.0776 17.0657C83.0401 16.6799 84.0711 16.4903 85.1092 16.5082C87.2126 16.4771 89.2492 17.2402 90.8054 18.6425L89.041 21.1672C88.4863 20.6599 87.8498 20.248 87.158 19.9486C86.5635 19.7224 85.9313 19.6087 85.2945 19.6135C84.689 19.5999 84.0872 19.7087 83.5256 19.9333C82.9641 20.1579 82.4546 20.4935 82.0284 20.9197C81.1451 21.7876 80.7035 22.9337 80.7035 24.3579C80.7035 25.7821 81.1279 26.9204 81.9767 27.7726C82.3669 28.1822 82.8383 28.5074 83.3615 28.7278C83.8846 28.9482 84.4481 29.059 85.0166 29.0532C86.1929 29.0532 87.1731 28.8298 87.9573 28.383L87.9487 24.2491Z" fill="#122307"/>
<path d="M105.244 26.1272C105.261 26.9181 105.114 27.7039 104.81 28.4355C104.506 29.1671 104.053 29.8287 103.479 30.3786C102.303 31.5296 100.825 32.1052 99.0457 32.1052C97.2662 32.1052 95.789 31.5296 94.6141 30.3786C93.4836 29.2449 92.8496 27.7155 92.8496 26.1219C92.8496 24.5283 93.4836 22.9989 94.6141 21.8652C95.7904 20.7056 97.2676 20.1265 99.0457 20.1279C100.824 20.1294 102.302 20.7084 103.479 21.8652C104.054 22.4185 104.507 23.083 104.81 23.8174C105.114 24.5518 105.261 25.3402 105.244 26.1336M96.1373 26.1336C96.1013 26.9821 96.3942 27.8121 96.956 28.4535C97.2245 28.736 97.5484 28.9611 97.908 29.115C98.2676 29.2688 98.6551 29.3482 99.0468 29.3482C99.4385 29.3482 99.826 29.2688 100.186 29.115C100.545 28.9611 100.869 28.736 101.138 28.4535C101.699 27.8118 101.991 26.9818 101.954 26.1336C101.99 25.2824 101.698 24.4494 101.138 23.8031C100.871 23.5172 100.548 23.2891 100.188 23.133C99.8281 22.977 99.4396 22.8964 99.0468 22.8964C98.654 22.8964 98.2655 22.977 97.9056 23.133C97.5458 23.2891 97.2224 23.5172 96.956 23.8031C96.3951 24.4492 96.1025 25.2821 96.1373 26.1336Z" fill="#122307"/>
<path d="M110.384 15.9192H107.116V31.9301H110.384V15.9192Z" fill="#122307"/>
<path d="M123.083 30.2482C122.469 30.8449 121.742 31.3161 120.944 31.6347C120.147 31.9532 119.293 32.1131 118.433 32.105C116.654 32.105 115.183 31.5614 114.021 30.4744C112.859 29.3874 112.278 27.9311 112.278 26.1057C112.278 24.2788 112.87 22.8254 114.054 21.7455C115.187 20.6872 116.691 20.1071 118.248 20.1277C119.75 20.0894 121.213 20.6042 122.354 21.5726C123.479 22.5373 124.041 23.8612 124.041 25.5444V27.271H115.503C115.554 27.5842 115.669 27.8838 115.841 28.1512C116.013 28.4185 116.239 28.6477 116.505 28.8247C117.062 29.2249 117.735 29.4367 118.423 29.4287C118.949 29.4449 119.473 29.3515 119.961 29.1544C120.448 28.9574 120.889 28.6611 121.254 28.2847L123.083 30.2482ZM119.946 23.3653C119.485 22.9865 118.901 22.7869 118.302 22.804C117.662 22.8019 117.039 23.0064 116.527 23.3867C116.267 23.5686 116.049 23.8031 115.888 24.0746C115.726 24.3461 115.624 24.6485 115.59 24.9617H120.73C120.713 24.6574 120.635 24.3595 120.5 24.0854C120.365 23.8113 120.177 23.5666 119.946 23.3653Z" fill="#122307"/>
<path d="M129.117 31.9322H125.849V15.9192H129.117V24.1402L132.753 20.3007H136.87L132.404 25.0046L137.045 31.9322H133.167L130.183 27.4867L129.117 28.5858V31.9322Z" fill="#122307"/>
<path d="M145.074 19.7606V31.9321H141.677V19.7606H137.364V16.8474H149.387V19.7606H145.074Z" fill="#122307"/>
<path d="M157.165 23.1713C156.191 23.1713 155.464 23.5128 154.985 24.1957C154.505 24.8787 154.266 25.7815 154.267 26.9041V31.9323H150.999V20.3221H154.267V21.8545C154.714 21.3591 155.25 20.9496 155.846 20.6465C156.442 20.3243 157.107 20.1466 157.785 20.1279L157.807 23.1713H157.165Z" fill="#122307"/>
<path d="M166.965 26.5796V20.3221H170.255V31.9322H166.965V30.3999C166.154 31.5381 165.105 32.1072 163.818 32.1072C162.624 32.1405 161.464 31.7101 160.586 30.9078C159.714 30.1096 159.278 28.9265 159.278 27.3586V20.3157H162.57V26.65C162.57 28.4328 163.231 29.3242 164.552 29.3242C164.869 29.3272 165.182 29.2667 165.474 29.1464C165.767 29.0261 166.031 28.8485 166.252 28.6242C166.73 28.1561 166.969 27.476 166.969 26.5839" fill="#122307"/>
<path d="M176.07 31.9322H172.804V15.9192H176.07V24.1402L179.709 20.3007H183.826L179.36 25.0046L184 31.9322H180.122L177.138 27.4867L176.07 28.5858V31.9322Z" fill="#122307"/>
<path d="M44.6841 0.124139C40.3399 -0.316588 35.9576 0.447387 32.0263 2.33078C28.095 4.21417 24.7695 7.14286 22.4209 10.7899C20.0723 14.437 18.7931 18.6589 18.7261 22.9844C18.6591 27.3098 19.8069 31.5687 22.0414 35.2854L15.2206 40.0319C14.7083 39.5538 14.0453 39.2651 13.3433 39.2146C12.6413 39.1641 11.9432 39.3547 11.3664 39.7545L4.50255 44.4753L0.409209 47.2989C0.201273 47.4432 0.059408 47.6631 0.0146015 47.9106C-0.0302049 48.1581 0.0256879 48.4132 0.170071 48.62L3.66449 53.5927C3.73659 53.6951 3.82834 53.7824 3.93451 53.8496C4.04068 53.9168 4.15918 53.9626 4.28323 53.9844C4.40729 54.0062 4.53446 54.0035 4.65749 53.9766C4.78051 53.9497 4.89697 53.899 5.00021 53.8275L15.9876 46.2489C16.4624 45.9211 16.8326 45.4656 17.0548 44.9362C17.2769 44.4069 17.3417 43.8256 17.2415 43.261L24.5147 38.6553C27.0362 41.5255 30.228 43.7414 33.8119 45.1098C37.3958 46.4782 41.2632 46.9578 45.077 46.5066C48.8908 46.0554 52.5354 44.6872 55.6933 42.5212C58.8511 40.3552 61.4264 37.4571 63.1948 34.0794C64.9631 30.7016 65.8709 26.9468 65.8391 23.142C65.8072 19.3371 64.8366 15.5978 63.0119 12.2496C61.1872 8.90143 58.5637 6.04607 55.37 3.93229C52.1763 1.8185 48.5092 0.510424 44.6884 0.12201M60.3702 25.1777C60.0033 28.7222 58.5835 32.0793 56.2906 34.8245C53.9976 37.5697 50.9344 39.5796 47.4883 40.6001C44.0422 41.6207 40.368 41.6059 36.9304 40.5578C33.4928 39.5096 30.4461 37.4752 28.1757 34.7117C25.9052 31.9482 24.513 28.5798 24.1751 25.0325C23.8372 21.4851 24.5687 17.9182 26.2772 14.7827C27.9857 11.6473 30.5944 9.08412 33.7734 7.41741C36.9524 5.75069 40.5589 5.05529 44.1369 5.41914C48.9341 5.90754 53.3392 8.26341 56.3834 11.9687C59.4275 15.6739 60.8616 20.4252 60.3702 25.1777Z" fill="#172B07"/>
<path d="M50.0401 27.6274C49.553 27.6274 49.0768 27.7705 48.6718 28.0386C48.2668 28.3068 47.9512 28.6879 47.7649 29.1338C47.5786 29.5796 47.5299 30.0702 47.6251 30.5435C47.7203 31.0167 47.955 31.4514 48.2996 31.7925C48.6442 32.1335 49.0832 32.3657 49.561 32.4596C50.0388 32.5535 50.534 32.5049 50.9839 32.3199C51.4339 32.1349 51.8183 31.8219 52.0886 31.4205C52.3589 31.0191 52.503 30.5472 52.5026 30.0647C52.5026 29.4177 52.2431 28.7972 51.7813 28.3397C51.3195 27.8823 50.6932 27.6252 50.0401 27.6252M50.0401 31.9364C49.9127 31.9366 49.7856 31.9237 49.6609 31.898C50.087 31.8111 50.4697 31.5813 50.7446 31.2473C51.0194 30.9133 51.1695 30.4956 51.1695 30.0647C51.1695 29.6337 51.0194 29.216 50.7446 28.882C50.4697 28.548 50.087 28.3182 49.6609 28.2314C49.7856 28.2056 49.9127 28.1927 50.0401 28.1929C50.5412 28.1929 51.0218 28.3901 51.3761 28.7411C51.7304 29.0922 51.9295 29.5682 51.9295 30.0647C51.9295 30.5611 51.7304 31.0371 51.3761 31.3882C51.0218 31.7392 50.5412 31.9364 50.0401 31.9364Z" fill="#172B07"/>
<path d="M55.1437 18.4695C54.9283 17.9103 51.3218 13.23 47.5775 13.23H46.3193M46.3193 13.23V30.0647H47.0949C47.0949 29.6807 47.1713 29.3005 47.3196 28.9458C47.4679 28.591 47.6853 28.2687 47.9594 27.9972C48.2335 27.7257 48.5588 27.5103 48.9169 27.3634C49.275 27.2164 49.6588 27.1408 50.0464 27.1408C50.434 27.1408 50.8178 27.2164 51.1759 27.3634C51.534 27.5103 51.8594 27.7257 52.1335 27.9972C52.4075 28.2687 52.6249 28.591 52.7733 28.9458C52.9216 29.3005 52.9979 29.6807 52.9979 30.0647H57.3067V28.5558H56.6432V27.5036H56.9556C57.0487 27.5036 57.138 27.467 57.2039 27.4017C57.2697 27.3365 57.3067 27.248 57.3067 27.1558V24.5947C57.3064 24.5035 57.2963 24.4127 57.2766 24.3236L56.0809 19.1802C55.846 18.1622 53.8812 17.4408 53.8812 17.4408M54.0127 22.437C54.0127 22.502 53.9978 22.5661 53.969 22.6245C53.9402 22.6829 53.8983 22.734 53.8466 22.7739C53.7949 22.8138 53.7346 22.8416 53.6704 22.8549C53.6062 22.8683 53.5398 22.867 53.4762 22.851L49.0123 21.7327C48.9193 21.7094 48.8368 21.656 48.7779 21.581C48.7189 21.506 48.687 21.4137 48.687 21.3187V19.0137C48.687 18.9005 48.7324 18.7919 48.8132 18.7119C48.894 18.6318 49.0036 18.5869 49.1179 18.5869H53.5818C53.6961 18.5869 53.8057 18.6318 53.8865 18.7119C53.9673 18.7919 54.0127 18.9005 54.0127 19.0137V22.437Z" fill="#172B07"/>
<path d="M32.2769 27.6274C31.7898 27.6274 31.3136 27.7705 30.9086 28.0386C30.5036 28.3068 30.188 28.6879 30.0017 29.1338C29.8154 29.5796 29.7667 30.0702 29.8619 30.5435C29.9571 31.0167 30.1919 31.4514 30.5365 31.7925C30.8811 32.1335 31.32 32.3657 31.7978 32.4596C32.2757 32.5535 32.7708 32.5049 33.2208 32.3199C33.6707 32.1349 34.0551 31.8219 34.3254 31.4205C34.5958 31.0191 34.7398 30.5472 34.7394 30.0647C34.7394 29.4177 34.4799 28.7972 34.0181 28.3397C33.5563 27.8823 32.93 27.6252 32.2769 27.6252M32.2769 31.9364C32.1495 31.9366 32.0225 31.9237 31.8978 31.898C32.3238 31.8111 32.7066 31.5813 32.9814 31.2473C33.2562 30.9133 33.4063 30.4956 33.4063 30.0647C33.4063 29.6337 33.2562 29.216 32.9814 28.882C32.7066 28.548 32.3238 28.3182 31.8978 28.2314C32.0225 28.2056 32.1495 28.1927 32.2769 28.1929C32.778 28.1929 33.2586 28.3901 33.6129 28.7411C33.9673 29.0922 34.1663 29.5682 34.1663 30.0647C34.1663 30.5611 33.9673 31.0371 33.6129 31.3882C33.2586 31.7392 32.778 31.9364 32.2769 31.9364Z" fill="#172B07"/>
<path d="M45.4208 26.5859V30.0647H35.2262C35.2262 29.2893 34.9153 28.5455 34.3617 27.9972C33.8082 27.4489 33.0575 27.1408 32.2747 27.1408C31.4919 27.1408 30.7412 27.4489 30.1877 27.9972C29.6341 28.5455 29.3232 29.2893 29.3232 30.0647H28.498C27.9352 30.0647 27.3955 29.8432 26.9975 29.449C26.5996 29.0547 26.376 28.5201 26.376 27.9625V26.5859H45.4208Z" fill="#172B07"/>
<path d="M45.4211 10.0159H42.5234V12.8992H45.4211V10.0159Z" fill="#5EEBB7"/>
<path d="M45.4211 13.2002H42.5234V16.0707H45.4211V13.2002Z" fill="#64DDC8"/>
<path d="M42.1896 16.395H39.292V19.2655H42.1896V16.395Z" fill="url(#paint0_linear_18_1079)"/>
<path d="M45.4211 16.395H42.5234V19.2655H45.4211V16.395Z" fill="url(#paint1_linear_18_1079)"/>
<path d="M42.1896 19.6306H39.292V22.5011H42.1896V19.6306Z" fill="#50B1D2"/>
<path d="M45.4211 19.6306H42.5234V22.5011H45.4211V19.6306Z" fill="#50B1D2"/>
<path d="M38.9602 19.6306H36.0625V22.5011H38.9602V19.6306Z" fill="#50B1D2"/>
<path d="M32.4968 22.8062H29.5991V25.6852H32.4968V22.8062Z" fill="#4099DE"/>
<path d="M29.2653 22.8062H26.3677V25.6852H29.2653V22.8062Z" fill="#4099DE"/>
<path d="M38.9602 22.8062H36.0625V25.6852H38.9602V22.8062Z" fill="#4099DE"/>
<path d="M35.7282 22.8062H32.8306V25.6852H35.7282V22.8062Z" fill="#4099DE"/>
<path d="M45.4211 22.8062H42.5234V25.6852H45.4211V22.8062Z" fill="#4099DE"/>
<path d="M42.1916 22.8062H39.2939V25.6852H42.1916V22.8062Z" fill="#4099DE"/>
</g>
<defs>
<linearGradient id="paint0_linear_18_1079" x1="40.7419" y1="19.2655" x2="40.7419" y2="16.395" gradientUnits="userSpaceOnUse">
<stop stop-color="#5BC2C9"/>
<stop offset="0.54" stop-color="#5BC2C9"/>
<stop offset="1" stop-color="#75EAB4"/>
</linearGradient>
<linearGradient id="paint1_linear_18_1079" x1="42.5234" y1="17.8292" x2="45.4211" y2="17.8292" gradientUnits="userSpaceOnUse">
<stop stop-color="#5BC2C9"/>
<stop offset="0.54" stop-color="#5BC2C9"/>
<stop offset="1" stop-color="#75EAB4"/>
</linearGradient>
<clipPath id="clip0_18_1079">
<rect width="184" height="54" fill="white"/>
</clipPath>
</defs>
</svg>
